<mxfile host="Electron" modified="2024-06-27T03:18:29.192Z" agent="Mozilla/5.0 (Windows NT 10.0; Win64; x64) AppleWebKit/537.36 (KHTML, like Gecko) draw.io/24.5.3 Chrome/124.0.6367.207 Electron/30.0.6 Safari/537.36" etag="ssesiaHNdC-GHsuYGpOS" version="24.5.3" type="device">
  <diagram name="第 1 页" id="TWYBwKs4vTm9eLc7GQB1">
    <mxGraphModel dx="734" dy="597" grid="1" gridSize="10" guides="1" tooltips="1" connect="1" arrows="1" fold="1" page="1" pageScale="1" pageWidth="827" pageHeight="1169" math="0" shadow="0">
      <root>
        <mxCell id="0" />
        <mxCell id="1" parent="0" />
        <mxCell id="GTkeQ6c2-yhCdykJjazQ-1" value="" style="rounded=1;whiteSpace=wrap;html=1;" parent="1" vertex="1">
          <mxGeometry x="330" y="449" width="280" height="1" as="geometry" />
        </mxCell>
        <mxCell id="GTkeQ6c2-yhCdykJjazQ-9" value="POE 通信 | 供电" style="ellipse;whiteSpace=wrap;html=1;fontSize=9;" parent="1" vertex="1">
          <mxGeometry x="365.5" y="410" width="70" height="30" as="geometry" />
        </mxCell>
        <mxCell id="GTkeQ6c2-yhCdykJjazQ-15" value="路由器" style="image;html=1;image=img/lib/clip_art/networking/Wireless_Router_N_128x128.png" parent="1" vertex="1">
          <mxGeometry x="186" y="379" width="120" height="100" as="geometry" />
        </mxCell>
        <mxCell id="GTkeQ6c2-yhCdykJjazQ-16" value="" style="endArrow=classic;html=1;rounded=0;" parent="1" source="GTkeQ6c2-yhCdykJjazQ-9" target="GTkeQ6c2-yhCdykJjazQ-15" edge="1">
          <mxGeometry width="50" height="50" relative="1" as="geometry">
            <mxPoint x="440" y="570" as="sourcePoint" />
            <mxPoint x="490" y="520" as="targetPoint" />
          </mxGeometry>
        </mxCell>
        <mxCell id="GTkeQ6c2-yhCdykJjazQ-18" value="" style="endArrow=none;html=1;rounded=0;entryX=0.5;entryY=0;entryDx=0;entryDy=0;" parent="1" target="GTkeQ6c2-yhCdykJjazQ-1" edge="1">
          <mxGeometry width="50" height="50" relative="1" as="geometry">
            <mxPoint x="470" y="530" as="sourcePoint" />
            <mxPoint x="570" y="540" as="targetPoint" />
          </mxGeometry>
        </mxCell>
        <mxCell id="GTkeQ6c2-yhCdykJjazQ-24" value="工厂电脑" style="verticalLabelPosition=bottom;html=1;verticalAlign=top;align=center;strokeColor=none;fillColor=#00BEF2;shape=mxgraph.azure.computer;pointerEvents=1;" parent="1" vertex="1">
          <mxGeometry x="220" y="640" width="115" height="120" as="geometry" />
        </mxCell>
        <mxCell id="GTkeQ6c2-yhCdykJjazQ-28" value="" style="html=1;verticalLabelPosition=bottom;align=center;labelBackgroundColor=#ffffff;verticalAlign=top;strokeWidth=2;strokeColor=#0080F0;shadow=0;dashed=0;shape=mxgraph.ios7.icons.wifi;pointerEvents=1;rotation=5;direction=west;" parent="1" vertex="1">
          <mxGeometry x="230" y="540" width="40" height="35" as="geometry" />
        </mxCell>
        <mxCell id="GTkeQ6c2-yhCdykJjazQ-29" value="显示器" style="html=1;verticalLabelPosition=bottom;align=center;labelBackgroundColor=#ffffff;verticalAlign=top;strokeWidth=2;strokeColor=#6c8ebf;shadow=0;dashed=0;shape=mxgraph.ios7.icons.monitor;fillColor=#dae8fc;" parent="1" vertex="1">
          <mxGeometry x="385" y="640" width="225" height="110" as="geometry" />
        </mxCell>
        <mxCell id="GTkeQ6c2-yhCdykJjazQ-30" value="" style="endArrow=classic;html=1;rounded=0;" parent="1" source="GTkeQ6c2-yhCdykJjazQ-24" target="GTkeQ6c2-yhCdykJjazQ-29" edge="1">
          <mxGeometry width="50" height="50" relative="1" as="geometry">
            <mxPoint x="390" y="700" as="sourcePoint" />
            <mxPoint x="440" y="650" as="targetPoint" />
          </mxGeometry>
        </mxCell>
        <mxCell id="GTkeQ6c2-yhCdykJjazQ-35" value="" style="endArrow=classic;html=1;rounded=0;" parent="1" source="GTkeQ6c2-yhCdykJjazQ-15" target="GTkeQ6c2-yhCdykJjazQ-12" edge="1">
          <mxGeometry width="50" height="50" relative="1" as="geometry">
            <mxPoint x="470" y="410" as="sourcePoint" />
            <mxPoint x="520" y="360" as="targetPoint" />
          </mxGeometry>
        </mxCell>
        <mxCell id="dsVRBWESB6sZ2RNwbNf7-1" value="" style="fontColor=#0066CC;verticalAlign=top;verticalLabelPosition=bottom;labelPosition=center;align=center;html=1;outlineConnect=0;fillColor=#CCCCCC;strokeColor=#6881B3;gradientColor=none;gradientDirection=north;strokeWidth=2;shape=mxgraph.networks.usb_stick;" parent="1" vertex="1">
          <mxGeometry x="186" y="692" width="20" height="30" as="geometry" />
        </mxCell>
        <mxCell id="dsVRBWESB6sZ2RNwbNf7-2" value="无线网卡" style="text;html=1;align=center;verticalAlign=middle;resizable=0;points=[];autosize=1;strokeColor=none;fillColor=none;" parent="1" vertex="1">
          <mxGeometry x="160" y="714" width="70" height="30" as="geometry" />
        </mxCell>
        <mxCell id="dsVRBWESB6sZ2RNwbNf7-4" style="edgeStyle=orthogonalEdgeStyle;rounded=0;orthogonalLoop=1;jettySize=auto;html=1;exitX=0.5;exitY=1;exitDx=0;exitDy=0;exitPerimeter=0;" parent="1" source="dsVRBWESB6sZ2RNwbNf7-1" target="dsVRBWESB6sZ2RNwbNf7-1" edge="1">
          <mxGeometry relative="1" as="geometry" />
        </mxCell>
        <mxCell id="dsVRBWESB6sZ2RNwbNf7-8" value="" style="group" parent="1" vertex="1" connectable="0">
          <mxGeometry x="410" y="330" width="80" height="60" as="geometry" />
        </mxCell>
        <mxCell id="GTkeQ6c2-yhCdykJjazQ-12" value="笔记本电脑" style="verticalLabelPosition=bottom;html=1;verticalAlign=top;align=center;strokeColor=none;fillColor=#00BEF2;shape=mxgraph.azure.laptop;pointerEvents=1;fontSize=9;" parent="dsVRBWESB6sZ2RNwbNf7-8" vertex="1">
          <mxGeometry width="80" height="60" as="geometry" />
        </mxCell>
        <mxCell id="dsVRBWESB6sZ2RNwbNf7-6" value="视觉算法" style="ellipse;whiteSpace=wrap;html=1;fontSize=9;fillColor=#dae8fc;strokeColor=#6c8ebf;" parent="dsVRBWESB6sZ2RNwbNf7-8" vertex="1">
          <mxGeometry x="12.571428571428571" y="12" width="57.14285714285714" height="24" as="geometry" />
        </mxCell>
        <mxCell id="dsVRBWESB6sZ2RNwbNf7-10" value="" style="group" parent="1" vertex="1" connectable="0">
          <mxGeometry x="568.001262658471" y="450" width="55.748737341529136" height="59.6787373415292" as="geometry" />
        </mxCell>
        <mxCell id="GTkeQ6c2-yhCdykJjazQ-3" value="" style="rounded=1;whiteSpace=wrap;html=1;direction=south;" parent="dsVRBWESB6sZ2RNwbNf7-10" vertex="1">
          <mxGeometry x="24.678737341529086" width="20" height="39" as="geometry" />
        </mxCell>
        <mxCell id="GTkeQ6c2-yhCdykJjazQ-5" value="" style="shape=cylinder3;whiteSpace=wrap;html=1;boundedLbl=1;backgroundOutline=1;size=4.994569255116005;direction=south;rotation=-225;" parent="dsVRBWESB6sZ2RNwbNf7-10" vertex="1">
          <mxGeometry x="4.748737341529136" y="19.930000000000007" width="40" height="30" as="geometry" />
        </mxCell>
        <mxCell id="GTkeQ6c2-yhCdykJjazQ-8" value="摄像头" style="text;html=1;align=center;verticalAlign=middle;resizable=0;points=[];autosize=1;strokeColor=none;fillColor=none;fontSize=9;" parent="dsVRBWESB6sZ2RNwbNf7-10" vertex="1">
          <mxGeometry x="5.748737341529136" y="19" width="50" height="20" as="geometry" />
        </mxCell>
        <mxCell id="GTkeQ6c2-yhCdykJjazQ-2" value="" style="rounded=1;whiteSpace=wrap;html=1;direction=south;" parent="1" vertex="1">
          <mxGeometry x="329" y="450" width="20" height="39" as="geometry" />
        </mxCell>
        <mxCell id="GTkeQ6c2-yhCdykJjazQ-4" value="" style="shape=cylinder3;whiteSpace=wrap;html=1;boundedLbl=1;backgroundOutline=1;size=4.994569255116005;direction=south;rotation=45;" parent="1" vertex="1">
          <mxGeometry x="327.93" y="470.93" width="40" height="30" as="geometry" />
        </mxCell>
        <mxCell id="GTkeQ6c2-yhCdykJjazQ-7" value="摄像头" style="text;html=1;align=center;verticalAlign=middle;resizable=0;points=[];autosize=1;strokeColor=none;fillColor=none;fontSize=9;" parent="1" vertex="1">
          <mxGeometry x="326.93" y="471.93" width="50" height="20" as="geometry" />
        </mxCell>
        <mxCell id="GTkeQ6c2-yhCdykJjazQ-17" value="" style="shape=parallelogram;perimeter=parallelogramPerimeter;whiteSpace=wrap;html=1;fixedSize=1;size=30;" parent="1" vertex="1">
          <mxGeometry x="406" y="549" width="100" height="50" as="geometry" />
        </mxCell>
        <mxCell id="GTkeQ6c2-yhCdykJjazQ-19" value="物料" style="shape=cube;whiteSpace=wrap;html=1;boundedLbl=1;backgroundOutline=1;darkOpacity=0.05;darkOpacity2=0.1;size=10;" parent="1" vertex="1">
          <mxGeometry x="435.5" y="560" width="43.5" height="25" as="geometry" />
        </mxCell>
        <mxCell id="GTkeQ6c2-yhCdykJjazQ-20" value="" style="endArrow=none;html=1;rounded=0;exitX=0.297;exitY=0.006;exitDx=0;exitDy=0;exitPerimeter=0;" parent="1" source="GTkeQ6c2-yhCdykJjazQ-17" edge="1">
          <mxGeometry width="50" height="50" relative="1" as="geometry">
            <mxPoint x="466" y="519" as="sourcePoint" />
            <mxPoint x="470" y="530" as="targetPoint" />
          </mxGeometry>
        </mxCell>
        <mxCell id="GTkeQ6c2-yhCdykJjazQ-21" value="" style="endArrow=none;html=1;rounded=0;exitX=1;exitY=0;exitDx=0;exitDy=0;" parent="1" source="GTkeQ6c2-yhCdykJjazQ-17" edge="1">
          <mxGeometry width="50" height="50" relative="1" as="geometry">
            <mxPoint x="476" y="529" as="sourcePoint" />
            <mxPoint x="470" y="530" as="targetPoint" />
          </mxGeometry>
        </mxCell>
        <mxCell id="GTkeQ6c2-yhCdykJjazQ-22" value="" style="endArrow=none;html=1;rounded=0;exitX=0;exitY=1;exitDx=0;exitDy=0;" parent="1" source="GTkeQ6c2-yhCdykJjazQ-17" edge="1">
          <mxGeometry width="50" height="50" relative="1" as="geometry">
            <mxPoint x="486" y="539" as="sourcePoint" />
            <mxPoint x="470" y="530" as="targetPoint" />
          </mxGeometry>
        </mxCell>
        <mxCell id="GTkeQ6c2-yhCdykJjazQ-23" value="" style="endArrow=none;html=1;rounded=0;exitX=0.75;exitY=1;exitDx=0;exitDy=0;" parent="1" source="GTkeQ6c2-yhCdykJjazQ-17" edge="1">
          <mxGeometry width="50" height="50" relative="1" as="geometry">
            <mxPoint x="415" y="619" as="sourcePoint" />
            <mxPoint x="470" y="529" as="targetPoint" />
          </mxGeometry>
        </mxCell>
        <mxCell id="dsVRBWESB6sZ2RNwbNf7-12" value="" style="endArrow=none;dashed=1;html=1;dashPattern=1 3;strokeWidth=2;rounded=0;" parent="1" edge="1">
          <mxGeometry width="50" height="50" relative="1" as="geometry">
            <mxPoint x="180" y="520" as="sourcePoint" />
            <mxPoint x="660" y="520" as="targetPoint" />
          </mxGeometry>
        </mxCell>
        <mxCell id="MpAiPg5oFX3jSs1RVb2t-3" value="" style="endArrow=classic;startArrow=classic;html=1;rounded=0;" edge="1" parent="1" source="GTkeQ6c2-yhCdykJjazQ-4" target="GTkeQ6c2-yhCdykJjazQ-9">
          <mxGeometry width="50" height="50" relative="1" as="geometry">
            <mxPoint x="410" y="520" as="sourcePoint" />
            <mxPoint x="460" y="470" as="targetPoint" />
          </mxGeometry>
        </mxCell>
        <mxCell id="MpAiPg5oFX3jSs1RVb2t-4" value="" style="endArrow=classic;startArrow=classic;html=1;rounded=0;" edge="1" parent="1" source="GTkeQ6c2-yhCdykJjazQ-5" target="GTkeQ6c2-yhCdykJjazQ-9">
          <mxGeometry width="50" height="50" relative="1" as="geometry">
            <mxPoint x="358" y="475" as="sourcePoint" />
            <mxPoint x="373" y="440" as="targetPoint" />
          </mxGeometry>
        </mxCell>
      </root>
    </mxGraphModel>
  </diagram>
</mxfile>
